<svg xmlns="http://www.w3.org/2000/svg" viewBox="0 0 500 500">
  <g fill="none" stroke="#000" stroke-width="2" transform="matrix(1, 0, 0, 1, 133.999985, 93.459869)">
    <polygon points="80,47 152,85 80 123"></polygon>
    <line x1="62" y1="71" x2="80" y2="71"></line>
    <line x1="62" y1="99" x2="80" y2="99"></line>
    <line x1="95" y1="66" x2="95" y2="76"></line>
    <line x1="90" y1="71" x2="100" y2="71"></line>
    <line x1="90" y1="99" x2="100" y2="99"></line>
    <line x1="116" y1="48" x2="116" y2="66"></line>
    <line x1="116" y1="104" x2="116" y2="122"></line>
    <line x1="152" y1="85" x2="170" y2="85"></line>
    <circle cx="59" cy="71" r="3"></circle>
    <circle cx="59" cy="99" r="3"></circle>
    <circle cx="116" cy="125" r="3"></circle>
    <circle cx="116" cy="45" r="3"></circle>
    <circle cx="173" cy="85" r="3"></circle>
  </g>
  <g fill="#000" font-family="sans" font-size="16px" transform="matrix(0.999995, 0.003328, -0.003328, 0.999995, 135.493546, 109.557159)" style="transform-origin: 88.948464px 75.09375px;">
    <text text-anchor="middle" style="white-space: pre;" transform="matrix(1, 0, 0.006784, 1, -0.473365, 0)"><tspan x="0" dy="1em">​</tspan>		</text>
    <text text-anchor="start" style="white-space: pre;"><tspan x="0" dy="1em">​</tspan>			<tspan x="0" dy="1em">​</tspan>		</text>
    <text text-anchor="start" style="white-space: pre;"> </text>
    <text style="white-space: pre; fill: rgb(51, 51, 51); font-family: Arial, sans-serif; font-size: 28px;" x="174.572" y="158.639"> </text>
    <text style="white-space: pre; fill: rgb(51, 51, 51); font-family: Arial, sans-serif; font-size: 28px;" x="50.587" y="98.822"> </text>
    <text style="white-space: pre; fill: rgb(51, 51, 51); font-family: Arial, sans-serif; font-size: 28px;" x="95.657" y="74.62"> </text>
    <text style="fill: rgb(51, 51, 51); font-family: Arial, sans-serif; font-size: 28px; white-space: pre;" x="104.834" y="70.415" transform="matrix(0.550036, 0, 0, 0.481593, 51.272923, 26.387367)">+</text>
    <text style="fill: rgb(51, 51, 51); font-family: Arial, sans-serif; font-size: 28px; white-space: pre;" transform="matrix(0.999994, -0.003328, 0.001952, 0.586446, 109.610588, 85.943657)">-</text>
  </g>
</svg>