<svg xmlns="http://www.w3.org/2000/svg" width="300" height="100" viewBox="0 0 300 100">
<defs></defs>
<line x1="20" y1="80" x2="90" y2="80" stroke="black" stroke-width="2" stroke-linecap="round" />
<line x1="110" y1="80" x2="190" y2="80" stroke="black" stroke-width="2" stroke-linecap="round" />
<line x1="210" y1="80" x2="280" y2="80" stroke="black" stroke-width="2" stroke-linecap="round" />
<rect x="14" y="74" width="12" height="12" fill="none" stroke="orange" />
<text x="32" y="94" font-size="12">P1</text>
<g transform="translate(100,80)">
  <path d="M10 15 l15 0 l2.5 -5 l5 10 l5 -10 l5 10 l5 -10 l5 10 l2.5 -5 l15 0" stroke="black" stroke-width="1" stroke-linejoin="bevel" fill="none"/>
</g>
<text x="112" y="94" font-size="12">R1</text>
<g transform="translate(200,80)">
  <path d="M10 15 l15 0 l2.5 -5 l5 10 l5 -10 l5 10 l5 -10 l5 10 l2.5 -5 l15 0" stroke="black" stroke-width="1" stroke-linejoin="bevel" fill="none"/>
</g>
<text x="212" y="94" font-size="12">R2</text>
<rect x="274" y="74" width="12" height="12" fill="none" stroke="orange" />
<text x="292" y="94" font-size="12">P2</text>
</svg>